<?xml version="1.0" encoding="UTF-8" standalone="no"?>
<!-- Created with Inkscape (http://www.inkscape.org/) -->

<svg
   width="600"
   height="600"
   viewBox="0 0 158.75 158.75"
   version="1.1"
   id="svg5"
   inkscape:version="1.2.2 (b0a8486541, 2022-12-01)"
   sodipodi:docname="icons.svg"
   inkscape:export-filename="../Programming/JavaScript/Node/DailyTopForSpotify/Images/boxStyleIcon.svg"
   inkscape:export-xdpi="96"
   inkscape:export-ydpi="96"
   xmlns:inkscape="http://www.inkscape.org/namespaces/inkscape"
   xmlns:sodipodi="http://sodipodi.sourceforge.net/DTD/sodipodi-0.dtd"
   xmlns="http://www.w3.org/2000/svg"
   xmlns:svg="http://www.w3.org/2000/svg">
  <sodipodi:namedview
     id="namedview7"
     pagecolor="#505050"
     bordercolor="#ffffff"
     borderopacity="1"
     inkscape:showpageshadow="0"
     inkscape:pageopacity="0"
     inkscape:pagecheckerboard="1"
     inkscape:deskcolor="#505050"
     inkscape:document-units="mm"
     showgrid="false"
     inkscape:zoom="0.72339885"
     inkscape:cx="226.01639"
     inkscape:cy="270.25202"
     inkscape:window-width="1362"
     inkscape:window-height="716"
     inkscape:window-x="0"
     inkscape:window-y="50"
     inkscape:window-maximized="1"
     inkscape:current-layer="layer3"
     showguides="false" />
  <defs
     id="defs2">
    <inkscape:path-effect
       effect="fillet_chamfer"
       id="path-effect16444"
       is_visible="true"
       lpeversion="1"
       nodesatellites_param="F,0,0,1,0,0,0,1 @ F,0,0,1,0,13.229167,0,1 @ F,0,0,1,0,13.229167,0,1 @ F,0,0,1,0,13.229167,0,1 @ F,0,0,1,0,0,0,1"
       unit="px"
       method="arc"
       mode="F"
       radius="50"
       chamfer_steps="1"
       flexible="false"
       use_knot_distance="true"
       apply_no_radius="true"
       apply_with_radius="true"
       only_selected="false"
       hide_knots="false" />
    <inkscape:path-effect
       effect="tiling"
       id="path-effect15637"
       is_visible="true"
       lpeversion="1"
       unit="px"
       seed="1;1"
       lpesatellites=""
       num_rows="4"
       num_cols="1"
       gapx="30"
       gapy="30"
       offset="0"
       offset_type="false"
       scale="0"
       rotate="0"
       mirrorrowsx="false"
       mirrorrowsy="false"
       mirrorcolsx="false"
       mirrorcolsy="false"
       mirrortrans="false"
       shrink_interp="false"
       split_items="false"
       link_styles="false"
       interpolate_scalex="false"
       interpolate_scaley="true"
       interpolate_rotatex="false"
       interpolate_rotatey="true"
       random_scale="false"
       random_rotate="false"
       random_gap_y="false"
       random_gap_x="false"
       transformorigin="" />
    <inkscape:path-effect
       effect="tiling"
       id="path-effect15631"
       is_visible="true"
       lpeversion="1"
       unit="px"
       seed="1;1830051342"
       lpesatellites=""
       num_rows="2"
       num_cols="2"
       gapx="30"
       gapy="30"
       offset="0"
       offset_type="false"
       scale="0"
       rotate="0"
       mirrorrowsx="false"
       mirrorrowsy="false"
       mirrorcolsx="false"
       mirrorcolsy="false"
       mirrortrans="false"
       shrink_interp="false"
       split_items="false"
       link_styles="false"
       interpolate_scalex="false"
       interpolate_scaley="true"
       interpolate_rotatex="false"
       interpolate_rotatey="true"
       random_scale="false"
       random_rotate="false"
       random_gap_y="false"
       random_gap_x="false"
       transformorigin="matrix(1.2094628,0,0,1.1455169,-31.763997,-12.079364)" />
    <inkscape:path-effect
       effect="mirror_symmetry"
       start_point="46.930901,77.813065"
       end_point="91.014234,147.21467"
       center_point="91.014234,77.813065"
       id="path-effect15219"
       is_visible="false"
       lpeversion="1.2"
       lpesatellites=""
       mode="X"
       discard_orig_path="false"
       fuse_paths="false"
       oposite_fuse="false"
       split_items="false"
       split_open="false"
       link_styles="false" />
  </defs>
  <g
     inkscape:label="Text"
     inkscape:groupmode="layer"
     id="layer1"
     style="display:none">
    <text
       xml:space="preserve"
       style="font-style:normal;font-variant:normal;font-weight:normal;font-stretch:normal;font-size:228.434px;font-family:'Roboto Mono';-inkscape-font-specification:'Roboto Mono';display:inline;fill:#cf7000;fill-opacity:1;fill-rule:evenodd;stroke:none;stroke-width:2.71265;stroke-linecap:round;stroke-linejoin:round;stroke-opacity:1"
       x="7.8778334"
       y="138.65854"
       id="text236"
       inkscape:label="pi"><tspan
         sodipodi:role="line"
         id="tspan234"
         style="font-style:normal;font-variant:normal;font-weight:normal;font-stretch:normal;font-family:'Roboto Mono';-inkscape-font-specification:'Roboto Mono';fill:#cf7000;fill-opacity:1;stroke:none;stroke-width:2.71265;stroke-opacity:1"
         x="7.8778334"
         y="138.65854">π</tspan></text>
  </g>
  <g
     inkscape:groupmode="layer"
     id="layer3"
     inkscape:label="Icons"
     style="display:inline">
    <path
       style="display:none;fill:none;fill-rule:evenodd;stroke:#000000;stroke-width:5.29167;stroke-linecap:round;stroke-linejoin:round;stroke-dasharray:none"
       id="rect15634"
       width="105.82004"
       height="25.522875"
       x="26.464975"
       y="26.492579"
       rx="8.6523428"
       ry="7.4345169"
       inkscape:label="lineStyle"
       inkscape:path-effect="#path-effect15637"
       class="UnoptimicedTransforms"
       d="m 35.117318,26.492579 h 88.515352 c 4.7934,0 8.65234,3.315794 8.65234,7.434516 v 10.653841 c 0,4.118723 -3.85894,7.434517 -8.65234,7.434517 h -88.515352 c -4.793398,0 -8.652343,-3.315794 -8.652343,-7.434517 v -10.653841 c 0,-4.118722 3.858945,-7.434516 8.652343,-7.434516 z m 0,33.460374 h 88.515352 c 4.7934,0 8.65234,3.315795 8.65234,7.434517 v 10.653841 c 0,4.118723 -3.85894,7.434517 -8.65234,7.434517 h -88.515352 c -4.793398,0 -8.652343,-3.315794 -8.652343,-7.434517 v -10.653841 c 0,-4.118722 3.858945,-7.434517 8.652343,-7.434517 z m 0,33.460375 h 88.515352 c 4.7934,0 8.65234,3.315795 8.65234,7.434522 v 10.65384 c 0,4.11872 -3.85894,7.43451 -8.65234,7.43451 h -88.515352 c -4.793398,0 -8.652343,-3.31579 -8.652343,-7.43451 v -10.65384 c 0,-4.118727 3.858945,-7.434522 8.652343,-7.434522 z m 0,33.460372 h 88.515352 c 4.7934,0 8.65234,3.3158 8.65234,7.43452 v 10.65384 c 0,4.11872 -3.85894,7.43452 -8.65234,7.43452 h -88.515352 c -4.793398,0 -8.652343,-3.3158 -8.652343,-7.43452 v -10.65384 c 0,-4.11872 3.858945,-7.43452 8.652343,-7.43452 z"
       sodipodi:type="rect"
       transform="matrix(1.0023913,0,0,0.84374718,-0.1898089,3.9063899)" />
    <path
       style="display:none;fill:none;fill-rule:evenodd;stroke:#000000;stroke-width:4.49568;stroke-linecap:round;stroke-linejoin:round;stroke-dasharray:none"
       id="rect15215"
       width="40.465298"
       height="42.700089"
       x="46.930901"
       y="56.46302"
       rx="6.2225008"
       ry="7.9566388"
       inkscape:path-effect="#path-effect15219;#path-effect15631"
       class="UnoptimicedTransforms"
       d="m 53.153401,56.46302 h 28.020296 c 3.447266,0 6.222501,3.548661 6.222501,7.956639 v 26.786811 c 0,4.407978 -2.775235,7.956639 -6.222501,7.956639 h -28.020296 c -3.447265,0 -6.2225,-3.548661 -6.2225,-7.956639 v -26.786811 c 0,-4.407978 2.775235,-7.956639 6.2225,-7.956639 z m 47.028129,0 h 28.0203 c 3.44726,0 6.2225,3.548661 6.2225,7.956639 v 26.786811 c 0,4.407978 -2.77524,7.956639 -6.2225,7.956639 h -28.0203 c -3.447265,0 -6.222501,-3.548661 -6.222501,-7.956639 v -26.786811 c 0,-4.407978 2.775236,-7.956639 6.222501,-7.956639 z m -47.028129,49.62928 h 28.020296 c 3.447266,0 6.222501,3.54866 6.222501,7.95663 v 26.78681 c 0,4.40798 -2.775235,7.95664 -6.222501,7.95664 h -28.020296 c -3.447265,0 -6.2225,-3.54866 -6.2225,-7.95664 v -26.78681 c 0,-4.40797 2.775235,-7.95663 6.2225,-7.95663 z m 47.028129,0 h 28.0203 c 3.44726,0 6.2225,3.54866 6.2225,7.95663 v 26.78681 c 0,4.40798 -2.77524,7.95664 -6.2225,7.95664 h -28.0203 c -3.447265,0 -6.222501,-3.54866 -6.222501,-7.95664 v -26.78681 c 0,-4.40797 2.775236,-7.95663 6.222501,-7.95663 z"
       sodipodi:type="rect"
       transform="matrix(1.2094628,0,0,1.1455169,-30.296202,-38.186767)"
       inkscape:label="boxStyle" />
    <path
       style="fill:#000000;fill-opacity:1;fill-rule:evenodd;stroke:none;stroke-width:5.29167;stroke-linecap:round;stroke-linejoin:round;stroke-dasharray:none"
       d="m 33.696914,79.375001 c 7.81e-4,-15.695908 9.52e-4,-31.392427 5.14e-4,-47.089554 a 7.421942,7.421942 150.70418 0 1 11.289978,-6.334557 c 25.399755,15.510487 50.798915,31.020377 76.197474,46.529674 a 8.0782028,8.0782028 90 0 1 0,13.788876 c -25.398559,15.5093 -50.797719,31.01918 -76.197474,46.52967 a 7.4219423,7.4219423 29.295818 0 1 -11.289978,-6.33456 c 4.38e-4,-15.69712 2.67e-4,-31.393639 -5.14e-4,-47.089547"
       id="path16329"
       sodipodi:nodetypes="ccccc"
       inkscape:label="arrowRight"
       inkscape:path-effect="#path-effect16444"
       inkscape:original-d="m 33.696914,79.375001 c 10e-4,-20.10524 10e-4,-40.211481 0,-60.318721 32.92719,20.107241 65.85338,40.213481 98.778566,60.318722 -32.925186,20.105241 -65.851376,40.211478 -98.778566,60.318718 10e-4,-20.10724 10e-4,-40.213477 0,-60.318717" />
  </g>
</svg>
