<?xml version="1.0" encoding="UTF-8" standalone="no"?>
<!-- Created with Inkscape (http://www.inkscape.org/) -->

<svg
   width="100"
   height="100"
   viewBox="0 0 100 100"
   version="1.1"
   id="svg5"
   inkscape:version="1.3.2 (091e20ef0f, 2023-11-25, custom)"
   sodipodi:docname="icons.svg"
   inkscape:export-filename="../Programming/JavaScript/Node/DailyTopForSpotify/Images/boxStyleIcon.svg"
   inkscape:export-xdpi="96"
   inkscape:export-ydpi="96"
   xmlns:inkscape="http://www.inkscape.org/namespaces/inkscape"
   xmlns:sodipodi="http://sodipodi.sourceforge.net/DTD/sodipodi-0.dtd"
   xmlns="http://www.w3.org/2000/svg"
   xmlns:svg="http://www.w3.org/2000/svg">
  <sodipodi:namedview
     id="namedview7"
     pagecolor="#505050"
     bordercolor="#ffffff"
     borderopacity="1"
     inkscape:showpageshadow="0"
     inkscape:pageopacity="0"
     inkscape:pagecheckerboard="1"
     inkscape:deskcolor="#505050"
     inkscape:document-units="px"
     showgrid="false"
     inkscape:zoom="4.6856415"
     inkscape:cx="54.528286"
     inkscape:cy="49.9398"
     inkscape:window-width="1362"
     inkscape:window-height="716"
     inkscape:window-x="0"
     inkscape:window-y="50"
     inkscape:window-maximized="1"
     inkscape:current-layer="layer3"
     showguides="false" />
  <defs
     id="defs2">
    <inkscape:path-effect
       effect="tiling"
       id="path-effect15631"
       is_visible="true"
       lpeversion="1"
       unit="px"
       seed="1;1830051342"
       lpesatellites=""
       num_rows="2"
       num_cols="2"
       gapx="10"
       gapy="10"
       offset="0"
       offset_type="false"
       scale="0"
       rotate="0"
       mirrorrowsx="false"
       mirrorrowsy="false"
       mirrorcolsx="false"
       mirrorcolsy="false"
       mirrortrans="false"
       shrink_interp="false"
       split_items="false"
       link_styles="false"
       interpolate_scalex="false"
       interpolate_scaley="true"
       interpolate_rotatex="false"
       interpolate_rotatey="true"
       random_scale="false"
       random_rotate="false"
       random_gap_y="false"
       random_gap_x="false"
       transformorigin="matrix(1.2094628,0,0,1.1455169,-31.763997,-12.079364)" />
    <inkscape:path-effect
       effect="mirror_symmetry"
       start_point="46.930901,77.813065"
       end_point="91.014234,147.21467"
       center_point="91.014234,77.813065"
       id="path-effect15219"
       is_visible="false"
       lpeversion="1.2"
       lpesatellites=""
       mode="X"
       discard_orig_path="false"
       fuse_paths="false"
       oposite_fuse="false"
       split_items="false"
       split_open="false"
       link_styles="false" />
  </defs>
  <g
     inkscape:groupmode="layer"
     id="layer3"
     inkscape:label="Icons"
     style="display:inline">
    <path
       style="display:inline;fill:none;fill-rule:evenodd;stroke:#000000;stroke-width:3.77024;stroke-linecap:round;stroke-linejoin:round;stroke-dasharray:none"
       id="rect15215"
       width="40.465298"
       height="42.700089"
       x="46.930901"
       y="56.46302"
       rx="6.2225008"
       ry="7.9566388"
       inkscape:path-effect="#path-effect15219;#path-effect15631"
       class="UnoptimicedTransforms"
       d="m 53.153401,56.46302 h 28.020296 c 3.447266,0 6.222501,3.548661 6.222501,7.956639 V 91.20647 c 0,4.407978 -2.775235,7.956639 -6.222501,7.956639 H 53.153401 c -3.447265,0 -6.2225,-3.548661 -6.2225,-7.956639 V 64.419659 c 0,-4.407978 2.775235,-7.956639 6.2225,-7.956639 z m 48.733429,0 h 28.0203 c 3.44726,0 6.2225,3.548661 6.2225,7.956639 V 91.20647 c 0,4.407978 -2.77524,7.956639 -6.2225,7.956639 h -28.0203 c -3.447263,0 -6.222498,-3.548661 -6.222498,-7.956639 V 64.419659 c 0,-4.407978 2.775235,-7.956639 6.222498,-7.956639 z m -48.733429,51.42977 h 28.020296 c 3.447266,0 6.222501,3.54866 6.222501,7.95664 v 26.78681 c 0,4.40798 -2.775235,7.95664 -6.222501,7.95664 H 53.153401 c -3.447265,0 -6.2225,-3.54866 -6.2225,-7.95664 v -26.78681 c 0,-4.40798 2.775235,-7.95664 6.2225,-7.95664 z m 48.733429,0 h 28.0203 c 3.44726,0 6.2225,3.54866 6.2225,7.95664 v 26.78681 c 0,4.40798 -2.77524,7.95664 -6.2225,7.95664 h -28.0203 c -3.447263,0 -6.222498,-3.54866 -6.222498,-7.95664 v -26.78681 c 0,-4.40798 2.775235,-7.95664 6.222498,-7.95664 z"
       sodipodi:type="rect"
       transform="matrix(0.75661341,0,0,0.71870772,-19.253026,-24.406337)"
       inkscape:label="boxMode" />
  </g>
</svg>
