<?xml version="1.0" encoding="UTF-8" standalone="no"?>
<!-- Created with Inkscape (http://www.inkscape.org/) -->

<svg
   width="100"
   height="100"
   viewBox="0 0 100 100"
   version="1.1"
   id="svg5"
   inkscape:version="1.3.2 (091e20ef0f, 2023-11-25, custom)"
   sodipodi:docname="icons.svg"
   inkscape:export-filename="../Programming/JavaScript/Node/DailyTopForSpotify/Images/lineStyleIcon.svg"
   inkscape:export-xdpi="96"
   inkscape:export-ydpi="96"
   xmlns:inkscape="http://www.inkscape.org/namespaces/inkscape"
   xmlns:sodipodi="http://sodipodi.sourceforge.net/DTD/sodipodi-0.dtd"
   xmlns="http://www.w3.org/2000/svg"
   xmlns:svg="http://www.w3.org/2000/svg">
  <sodipodi:namedview
     id="namedview7"
     pagecolor="#505050"
     bordercolor="#ffffff"
     borderopacity="1"
     inkscape:showpageshadow="0"
     inkscape:pageopacity="0"
     inkscape:pagecheckerboard="1"
     inkscape:deskcolor="#505050"
     inkscape:document-units="px"
     showgrid="false"
     inkscape:zoom="4.6856415"
     inkscape:cx="54.528286"
     inkscape:cy="49.9398"
     inkscape:window-width="1362"
     inkscape:window-height="716"
     inkscape:window-x="0"
     inkscape:window-y="50"
     inkscape:window-maximized="1"
     inkscape:current-layer="layer3"
     showguides="false" />
  <defs
     id="defs2">
    <inkscape:path-effect
       effect="tiling"
       id="path-effect15637"
       is_visible="true"
       lpeversion="1"
       unit="px"
       seed="1;1"
       lpesatellites=""
       num_rows="6"
       num_cols="1"
       gapx="30"
       gapy="9"
       offset="0"
       offset_type="false"
       scale="0"
       rotate="0"
       mirrorrowsx="false"
       mirrorrowsy="false"
       mirrorcolsx="false"
       mirrorcolsy="false"
       mirrortrans="false"
       shrink_interp="false"
       split_items="false"
       link_styles="false"
       interpolate_scalex="false"
       interpolate_scaley="true"
       interpolate_rotatex="false"
       interpolate_rotatey="true"
       random_scale="false"
       random_rotate="false"
       random_gap_y="false"
       random_gap_x="false"
       transformorigin="" />
  </defs>
  <g
     inkscape:groupmode="layer"
     id="layer3"
     inkscape:label="Icons"
     style="display:inline">
    <path
       style="display:inline;fill:none;fill-rule:evenodd;stroke:#000000;stroke-width:4.96979;stroke-linecap:round;stroke-linejoin:round;stroke-dasharray:none"
       id="rect15634"
       width="105.82004"
       height="17.01482"
       x="26.464975"
       y="26.492579"
       rx="8.6523428"
       ry="7.4345169"
       inkscape:label="lineModeSmall"
       class="UnoptimicedTransforms"
       sodipodi:type="rect"
       transform="matrix(0.54829557,0,0,0.46151921,6.4790423,3.8309849)"
       d="m 35.117318,26.492579 h 88.515352 c 4.7934,0 8.65234,3.315794 8.65234,7.434516 v 2.145787 c 0,4.118722 -3.85894,7.434517 -8.65234,7.434517 H 35.117318 c -4.793398,0 -8.652343,-3.315795 -8.652343,-7.434517 v -2.145787 c 0,-4.118722 3.858945,-7.434516 8.652343,-7.434516 z m 0,26.01482 h 88.515352 c 4.7934,0 8.65234,3.315794 8.65234,7.434517 v 2.145786 c 0,4.118722 -3.85894,7.434517 -8.65234,7.434517 H 35.117318 c -4.793398,0 -8.652343,-3.315795 -8.652343,-7.434517 v -2.145786 c 0,-4.118723 3.858945,-7.434517 8.652343,-7.434517 z m 0,26.01482 h 88.515352 c 4.7934,0 8.65234,3.315794 8.65234,7.434517 v 2.145786 c 0,4.118722 -3.85894,7.434517 -8.65234,7.434517 H 35.117318 c -4.793398,0 -8.652343,-3.315795 -8.652343,-7.434517 v -2.145786 c 0,-4.118723 3.858945,-7.434517 8.652343,-7.434517 z m 0,26.014821 h 88.515352 c 4.7934,0 8.65234,3.31579 8.65234,7.43452 v 2.14578 c 0,4.11872 -3.85894,7.43452 -8.65234,7.43452 H 35.117318 c -4.793398,0 -8.652343,-3.3158 -8.652343,-7.43452 v -2.14578 c 0,-4.11873 3.858945,-7.43452 8.652343,-7.43452 z m 0,26.01482 h 88.515352 c 4.7934,0 8.65234,3.31579 8.65234,7.43452 v 2.14578 c 0,4.11872 -3.85894,7.43452 -8.65234,7.43452 H 35.117318 c -4.793398,0 -8.652343,-3.3158 -8.652343,-7.43452 v -2.14578 c 0,-4.11873 3.858945,-7.43452 8.652343,-7.43452 z m 0,26.01482 h 88.515352 c 4.7934,0 8.65234,3.31579 8.65234,7.43452 v 2.14578 c 0,4.11872 -3.85894,7.43452 -8.65234,7.43452 H 35.117318 c -4.793398,0 -8.652343,-3.3158 -8.652343,-7.43452 v -2.14578 c 0,-4.11873 3.858945,-7.43452 8.652343,-7.43452 z"
       inkscape:path-effect="#path-effect15637" />
  </g>
</svg>
